<svg id="svg" version="1.1" width="400" height="397.7077363896848" viewBox="0 0 400 397.7077363896848" xmlns="http://www.w3.org/2000/svg" xmlns:xlink="http://www.w3.org/1999/xlink" ><g id="svgg"><path id="path2" d="M379.895 20.498 L 379.900 40.796 389.950 40.806 L 400.000 40.817 390.054 40.700 L 380.107 40.583 379.998 20.391 L 379.890 0.199 379.895 20.498 M71.341 37.489 C 71.276 62.112,71.108 74.465,70.836 74.633 C 70.488 74.848,68.060 79.789,68.060 80.282 C 68.060 80.377,68.328 80.186,68.657 79.858 C 68.985 79.529,69.254 79.083,69.254 78.865 C 69.254 78.647,69.792 77.931,70.450 77.273 L 71.646 76.077 71.542 38.337 L 71.439 0.597 71.341 37.489 M335.323 3.738 C 333.704 5.665,333.513 6.030,334.722 4.888 C 335.468 4.184,335.998 3.530,335.900 3.436 C 335.802 3.342,335.542 3.477,335.323 3.738 M330.930 8.511 C 329.776 9.710,329.400 10.384,330.029 10.128 C 330.590 9.899,332.107 7.981,331.880 7.787 C 331.804 7.722,331.376 8.048,330.930 8.511 M327.553 12.815 C 327.011 13.489,326.507 14.194,326.434 14.383 C 326.362 14.572,326.048 14.726,325.738 14.726 C 325.400 14.726,325.174 15.130,325.174 15.735 C 325.174 16.621,325.271 16.692,325.970 16.318 C 326.408 16.084,326.766 15.672,326.766 15.402 C 326.766 15.132,327.230 14.229,327.797 13.395 C 329.063 11.531,328.900 11.143,327.553 12.815 M42.792 14.218 L 41.692 15.721 42.978 14.404 C 43.685 13.679,44.180 13.003,44.078 12.901 C 43.976 12.798,43.397 13.391,42.792 14.218 M33.831 25.130 C 33.831 25.380,33.517 25.822,33.134 26.113 C 32.751 26.403,32.629 26.647,32.864 26.654 C 33.098 26.661,33.679 26.219,34.154 25.672 C 34.817 24.910,34.880 24.677,34.425 24.677 C 34.098 24.677,33.831 24.881,33.831 25.130 M31.823 27.895 C 31.191 29.075,31.512 29.151,32.357 28.021 C 32.750 27.495,32.891 27.065,32.669 27.065 C 32.448 27.065,32.067 27.438,31.823 27.895 M24.745 37.054 C 24.008 38.233,24.335 38.321,25.193 37.175 C 25.586 36.649,25.763 36.219,25.587 36.219 C 25.410 36.219,25.032 36.595,24.745 37.054 M21.060 41.891 C 20.409 42.841,20.376 42.973,20.933 42.388 C 21.350 41.950,21.950 41.368,22.265 41.095 C 22.603 40.802,22.655 40.597,22.392 40.597 C 22.146 40.597,21.546 41.179,21.060 41.891 M15.752 48.452 C 15.628 48.838,14.810 49.960,13.933 50.945 C 13.057 51.930,12.339 52.877,12.339 53.049 C 12.339 53.220,12.920 52.683,13.631 51.855 C 14.342 51.026,15.014 50.259,15.124 50.149 C 16.197 49.079,16.707 48.200,16.373 47.994 C 16.156 47.860,15.876 48.066,15.752 48.452 M325.174 114.030 C 325.174 114.649,325.400 115.025,325.771 115.025 C 326.100 115.025,326.372 115.159,326.376 115.323 C 326.380 115.488,327.035 116.338,327.832 117.214 C 328.993 118.490,329.133 118.569,328.541 117.612 C 328.134 116.955,327.374 115.657,326.852 114.726 C 325.778 112.815,325.174 112.564,325.174 114.030 M334.522 216.915 C 334.522 246.358,334.569 258.403,334.627 243.682 C 334.685 228.960,334.685 204.871,334.627 190.149 C 334.569 175.428,334.522 187.473,334.522 216.915 M33.234 200.599 L 4.975 200.809 34.147 200.892 C 53.011 200.946,63.233 200.838,63.078 200.587 C 62.946 200.374,62.536 200.242,62.166 200.294 C 61.795 200.347,48.776 200.484,33.234 200.599 M314.428 254.670 C 314.428 255.061,319.174 258.073,319.413 257.834 C 319.500 257.747,318.951 257.343,318.193 256.935 C 317.436 256.527,316.816 256.042,316.816 255.858 C 316.816 255.673,316.566 255.522,316.261 255.522 C 315.957 255.522,315.604 255.254,315.478 254.925 C 315.235 254.291,314.428 254.095,314.428 254.670 M232.184 259.140 C 232.231 259.389,233.068 260.044,234.045 260.595 L 235.821 261.597 234.627 260.564 C 233.970 259.996,233.224 259.525,232.968 259.517 C 232.713 259.509,232.413 259.319,232.302 259.095 C 232.185 258.859,232.135 258.879,232.184 259.140 M329.001 265.981 C 329.137 266.370,329.630 266.885,330.097 267.124 C 330.823 267.497,330.862 267.481,330.366 267.014 C 330.048 266.713,329.555 266.199,329.271 265.871 C 328.821 265.351,328.786 265.365,329.001 265.981 M246.567 270.852 C 247.005 271.208,247.318 271.665,247.264 271.869 C 247.209 272.072,247.455 272.239,247.810 272.239 C 248.629 272.239,247.870 271.213,246.600 270.603 C 245.777 270.208,245.777 270.210,246.567 270.852 M253.310 276.829 C 253.735 277.150,254.262 277.413,254.481 277.413 C 254.699 277.413,254.531 277.150,254.106 276.829 C 253.681 276.507,253.154 276.244,252.935 276.244 C 252.716 276.244,252.885 276.507,253.310 276.829 M265.132 286.361 C 265.648 286.905,266.230 287.353,266.426 287.356 C 266.622 287.360,266.300 286.915,265.709 286.368 C 264.322 285.083,263.915 285.078,265.132 286.361 M269.453 289.490 C 269.453 289.611,269.900 290.193,270.448 290.784 C 270.995 291.374,271.440 291.697,271.436 291.501 C 271.429 291.121,269.453 289.117,269.453 289.490 M286.169 303.852 C 286.169 304.196,286.383 304.478,286.645 304.478 C 286.907 304.478,287.648 304.970,288.292 305.572 L 289.463 306.667 288.765 305.572 C 288.382 304.970,287.922 304.478,287.744 304.478 C 287.566 304.478,287.139 304.196,286.795 303.852 C 286.226 303.284,286.169 303.284,286.169 303.852 M311.244 324.237 C 311.244 324.666,314.522 327.563,314.992 327.549 C 315.229 327.542,314.975 327.168,314.428 326.719 C 313.881 326.269,312.940 325.468,312.338 324.938 C 311.736 324.408,311.244 324.092,311.244 324.237 M320.000 331.902 C 321.075 332.784,321.592 332.941,321.592 332.385 C 321.592 332.191,321.279 331.923,320.896 331.787 C 320.512 331.652,319.930 331.439,319.602 331.314 C 319.274 331.188,319.453 331.453,320.000 331.902 M327.807 338.235 C 327.707 338.397,328.148 338.829,328.788 339.196 C 330.207 340.011,330.253 339.909,328.969 338.793 C 328.430 338.324,327.907 338.073,327.807 338.235 M339.299 347.805 C 339.734 348.314,340.451 348.915,340.891 349.141 L 341.692 349.551 340.890 348.805 C 339.252 347.281,338.384 346.735,339.299 347.805 M350.249 357.001 C 350.249 357.228,350.502 357.413,350.813 357.413 C 351.123 357.413,351.467 357.637,351.577 357.910 C 351.729 358.285,351.786 358.289,351.809 357.924 C 351.827 357.659,351.483 357.249,351.045 357.015 C 350.505 356.726,350.249 356.722,350.249 357.001 M358.209 363.238 C 358.209 363.496,360.597 365.771,360.868 365.771 C 361.192 365.771,360.893 365.408,359.602 364.233 C 358.836 363.536,358.209 363.088,358.209 363.238 M384.325 385.051 C 384.445 385.366,385.022 385.928,385.606 386.300 C 386.662 386.972,386.662 386.970,385.498 385.726 C 384.188 384.328,384.007 384.223,384.325 385.051 M387.107 387.429 C 387.240 387.776,387.524 388.060,387.737 388.060 C 388.261 388.060,387.933 387.155,387.338 386.957 C 387.047 386.860,386.958 387.042,387.107 387.429 " stroke="none" fill="#333333" fill-rule="evenodd"></path><path id="path3" d="" stroke="none" fill="#174617" fill-rule="evenodd"></path><path id="path4" d="M53.333 0.714 C 53.333 1.107,52.617 2.197,51.741 3.136 C 50.866 4.075,50.149 5.007,50.149 5.208 C 50.149 5.408,49.982 5.572,49.778 5.572 C 49.574 5.572,49.294 5.927,49.156 6.361 C 49.019 6.795,48.212 7.873,47.363 8.756 C 46.515 9.639,45.707 10.720,45.568 11.157 C 45.429 11.594,45.163 11.857,44.975 11.741 C 44.788 11.625,44.507 11.932,44.352 12.422 C 44.196 12.912,43.378 14.034,42.533 14.915 C 41.689 15.796,40.896 16.831,40.771 17.214 C 40.646 17.597,40.376 17.910,40.172 17.910 C 39.968 17.910,39.801 18.083,39.801 18.295 C 39.801 18.506,39.308 19.199,38.706 19.834 C 37.260 21.359,36.219 22.646,36.219 22.907 C 36.219 23.100,36.013 23.377,34.813 24.790 C 34.588 25.056,33.519 26.438,32.437 27.861 C 31.356 29.284,29.975 30.985,29.367 31.642 C 28.760 32.299,28.262 33.060,28.261 33.333 C 28.260 33.607,28.116 33.831,27.943 33.831 C 27.769 33.831,26.474 35.398,25.064 37.313 C 23.655 39.229,22.306 40.975,22.066 41.194 C 21.424 41.781,19.104 44.854,19.104 45.118 C 19.104 45.243,18.567 45.895,17.910 46.567 C 17.254 47.239,16.715 47.917,16.713 48.073 C 16.711 48.230,15.900 49.254,14.910 50.348 C 13.921 51.443,12.843 52.831,12.515 53.433 C 12.188 54.035,11.745 54.527,11.532 54.527 C 11.319 54.527,11.144 54.691,11.144 54.892 C 11.144 55.236,10.526 56.043,8.458 58.399 C 7.965 58.961,7.562 59.581,7.562 59.779 C 7.562 59.976,7.073 60.591,6.475 61.146 C 3.747 63.674,3.986 56.873,3.983 132.026 C 3.980 199.291,3.986 199.776,4.773 200.198 C 5.720 200.704,62.396 200.586,63.184 200.076 C 63.578 199.821,63.682 187.988,63.682 143.110 C 63.682 93.245,63.753 86.406,64.279 85.970 C 64.607 85.698,64.876 85.228,64.876 84.926 C 64.876 84.625,65.055 84.378,65.274 84.378 C 65.493 84.378,65.672 84.208,65.672 84.001 C 65.672 83.793,66.075 83.187,66.567 82.654 C 67.060 82.121,68.063 80.276,68.797 78.554 C 69.531 76.832,70.379 75.143,70.681 74.801 C 71.140 74.284,71.249 67.980,71.337 37.090 L 71.443 -0.000 62.388 -0.000 C 53.945 -0.000,53.333 0.048,53.333 0.714 M338.706 0.343 C 338.706 0.532,337.408 2.055,335.821 3.727 C 334.234 5.398,332.488 7.335,331.940 8.029 C 331.393 8.724,330.498 9.758,329.950 10.328 C 328.845 11.480,327.805 13.095,326.958 14.977 C 326.650 15.661,326.122 16.328,325.786 16.457 C 325.092 16.723,324.826 113.035,325.520 113.035 C 325.710 113.035,326.560 114.226,327.410 115.682 C 328.260 117.139,329.716 119.137,330.647 120.124 C 331.577 121.110,332.338 122.079,332.338 122.276 C 332.338 122.473,332.517 122.523,332.736 122.388 C 332.955 122.253,333.134 122.412,333.134 122.743 C 333.134 123.073,333.421 123.504,333.771 123.700 C 334.729 124.236,335.186 270.408,334.229 270.190 C 333.568 270.039,331.064 268.062,328.884 265.970 C 328.142 265.259,327.445 264.677,327.333 264.677 C 327.117 264.677,326.390 264.114,325.146 262.985 C 324.723 262.602,324.305 262.289,324.216 262.289 C 324.128 262.289,323.155 261.421,322.054 260.360 C 320.954 259.300,318.788 257.667,317.241 256.733 C 315.694 255.798,314.428 254.874,314.428 254.681 C 314.428 254.118,229.366 254.223,229.017 254.787 C 228.862 255.039,229.030 255.462,229.392 255.726 C 229.754 255.991,230.050 256.318,230.050 256.455 C 230.050 256.832,232.723 259.502,233.101 259.503 C 233.284 259.503,234.089 260.085,234.891 260.796 C 238.313 263.832,239.129 264.530,240.360 265.473 C 241.074 266.020,242.167 266.960,242.789 267.562 C 243.410 268.164,244.097 268.657,244.314 268.657 C 244.532 268.657,244.769 268.815,244.842 269.009 C 245.030 269.506,248.681 272.239,249.158 272.239 C 249.375 272.239,249.552 272.507,249.552 272.836 C 249.552 273.164,249.725 273.433,249.937 273.433 C 250.149 273.433,250.921 274.015,251.653 274.726 C 253.394 276.419,254.958 277.742,256.915 279.178 C 257.791 279.821,259.045 280.850,259.701 281.465 C 260.358 282.080,261.024 282.584,261.181 282.585 C 261.338 282.586,262.077 283.169,262.823 283.881 C 264.510 285.488,265.953 286.708,268.259 288.479 C 269.244 289.235,270.444 290.278,270.926 290.797 C 271.408 291.317,271.901 291.741,272.021 291.741 C 272.141 291.741,272.584 292.055,273.006 292.438 C 274.449 293.747,274.991 294.129,275.406 294.129 C 275.634 294.129,275.821 294.398,275.821 294.726 C 275.821 295.055,276.009 295.323,276.238 295.323 C 276.467 295.323,277.070 295.771,277.577 296.318 C 278.084 296.866,278.602 297.313,278.728 297.313 C 278.853 297.313,279.544 297.851,280.263 298.507 C 280.982 299.164,281.713 299.701,281.886 299.701 C 282.060 299.701,282.975 300.507,283.919 301.493 C 284.862 302.478,285.763 303.284,285.919 303.284 C 286.288 303.284,287.140 303.973,288.746 305.572 C 289.460 306.284,290.182 306.866,290.350 306.866 C 290.518 306.866,291.034 307.271,291.497 307.767 C 291.960 308.263,292.965 309.104,293.731 309.636 C 294.498 310.168,295.519 311.016,296.001 311.521 C 296.483 312.025,296.961 312.438,297.063 312.438 C 297.165 312.438,297.994 313.154,298.905 314.030 C 299.817 314.905,300.714 315.622,300.900 315.622 C 301.085 315.622,301.900 316.247,302.711 317.012 C 303.521 317.776,304.708 318.806,305.347 319.300 C 307.175 320.713,309.348 322.522,310.130 323.284 C 310.524 323.667,311.010 323.980,311.211 323.980 C 311.411 323.980,311.635 324.117,311.708 324.285 C 311.781 324.453,312.736 325.302,313.831 326.172 C 314.925 327.042,316.464 328.383,317.250 329.151 C 318.851 330.715,319.867 331.454,320.896 331.799 C 321.279 331.928,321.592 332.281,321.592 332.584 C 321.592 332.887,321.771 333.134,321.990 333.134 C 322.209 333.134,323.104 333.851,323.980 334.726 C 324.856 335.602,325.711 336.318,325.882 336.318 C 326.052 336.318,326.478 336.632,326.829 337.015 C 327.179 337.398,328.064 338.159,328.794 338.706 C 329.525 339.254,330.398 339.970,330.736 340.299 C 331.073 340.627,332.500 341.791,333.906 342.886 C 335.312 343.980,336.932 345.323,337.505 345.871 C 338.078 346.418,339.234 347.403,340.075 348.060 C 340.915 348.716,341.834 349.478,342.116 349.751 C 342.399 350.025,342.727 350.249,342.847 350.249 C 342.966 350.249,343.845 351.030,344.800 351.985 C 345.755 352.940,346.723 353.790,346.952 353.875 C 347.443 354.057,350.198 356.274,352.213 358.108 C 352.993 358.818,353.772 359.400,353.944 359.401 C 354.115 359.402,354.781 359.940,355.423 360.597 C 356.065 361.254,356.667 361.791,356.760 361.791 C 356.853 361.791,357.856 362.642,358.989 363.682 C 360.121 364.721,361.130 365.523,361.230 365.463 C 361.331 365.403,361.832 365.806,362.344 366.359 C 362.856 366.911,363.398 367.363,363.547 367.363 C 363.697 367.363,364.214 367.774,364.696 368.276 C 365.178 368.778,366.460 369.897,367.546 370.763 C 368.631 371.630,369.802 372.607,370.146 372.935 C 370.491 373.264,371.458 374.070,372.297 374.726 C 373.843 375.938,374.517 376.488,376.185 377.902 C 379.726 380.902,381.683 382.488,381.846 382.488 C 381.950 382.488,383.077 383.470,384.351 384.671 C 385.624 385.872,386.854 386.857,387.083 386.860 C 387.313 386.863,387.939 387.395,388.476 388.043 C 389.013 388.690,389.856 389.228,390.348 389.237 L 391.244 389.254 391.244 251.144 L 391.244 113.035 395.622 113.035 L 400.000 113.035 400.000 77.022 L 400.000 41.009 389.950 40.902 L 379.900 40.796 379.797 20.398 L 379.694 0.000 359.200 0.000 C 347.929 0.000,338.706 0.154,338.706 0.343 " stroke="none" fill="#474b4a" fill-rule="evenodd"></path></g></svg>