<?xml version="1.0" encoding="utf-8"?>
<!-- Generator: Adobe Illustrator 22.0.1, SVG Export Plug-In . SVG Version: 6.00 Build 0)  -->
<svg version="1.1" id="svg" xmlns="http://www.w3.org/2000/svg" xmlns:xlink="http://www.w3.org/1999/xlink" x="0px" y="0px"
	 viewBox="0 0 400 397.7" style="enable-background:new 0 0 400 397.7;" xml:space="preserve">
<style type="text/css">
	.st0{fill:#333333;}
	.st1{fill:#474B4A;}
</style>
<g id="svgg">
	<path id="path3" class="st0" d="M379.9,20.5l0,20.3l10.1,0l2.4,0.2l-2.3-0.3l-9.9-0.1L380,20.4l-0.1-20.2L379.9,20.5 M71.3,37.5
		c-0.1,24.6-0.2,37-0.5,37.1c-0.3,0.2-2.8,5.2-2.8,5.6c0,0.1,0.3-0.1,0.6-0.4c0.3-0.3,0.6-0.8,0.6-1c0-0.2,0.5-0.9,1.2-1.6l1.2-1.2
		l-0.1-37.7L71.4,0.6L71.3,37.5 M335.3,3.7c-1.6,1.9-1.8,2.3-0.6,1.2c0.7-0.7,1.3-1.4,1.2-1.5C335.8,3.3,335.5,3.5,335.3,3.7
		 M330.9,8.5c-1.2,1.2-1.5,1.9-0.9,1.6c0.6-0.2,2.1-2.1,1.9-2.3C331.8,7.7,331.4,8,330.9,8.5 M327.6,12.8c-0.5,0.7-1,1.4-1.1,1.6
		c-0.1,0.2-0.4,0.3-0.7,0.3c-0.3,0-0.6,0.4-0.6,1c0,0.9,0.1,1,0.8,0.6c0.4-0.2,0.8-0.6,0.8-0.9c0-0.3,0.5-1.2,1-2
		C329.1,11.5,328.9,11.1,327.6,12.8 M42.8,14.2l-1.1,1.5l1.3-1.3c0.7-0.7,1.2-1.4,1.1-1.5C44,12.8,43.4,13.4,42.8,14.2 M33.8,25.1
		c0,0.3-0.3,0.7-0.7,1c-0.4,0.3-0.5,0.5-0.3,0.5c0.2,0,0.8-0.4,1.3-1c0.7-0.8,0.7-1,0.3-1C34.1,24.7,33.8,24.9,33.8,25.1 M31.8,27.9
		c-0.6,1.2-0.3,1.3,0.5,0.1c0.4-0.5,0.5-1,0.3-1C32.4,27.1,32.1,27.4,31.8,27.9 M24.7,37.1c-0.7,1.2-0.4,1.3,0.4,0.1
		c0.4-0.5,0.6-1,0.4-1C25.4,36.2,25,36.6,24.7,37.1 M21.1,41.9c-0.7,1-0.7,1.1-0.1,0.5c0.4-0.4,1-1,1.3-1.3c0.3-0.3,0.4-0.5,0.1-0.5
		C22.1,40.6,21.5,41.2,21.1,41.9 M15.8,48.5c-0.1,0.4-0.9,1.5-1.8,2.5c-0.9,1-1.6,1.9-1.6,2.1c0,0.2,0.6-0.4,1.3-1.2
		c0.7-0.8,1.4-1.6,1.5-1.7c1.1-1.1,1.6-1.9,1.2-2.2C16.2,47.9,15.9,48.1,15.8,48.5 M325.2,114c0,0.6,0.2,1,0.6,1
		c0.3,0,0.6,0.1,0.6,0.3c0,0.2,0.7,1,1.5,1.9c1.2,1.3,1.3,1.4,0.7,0.4c-0.4-0.7-1.2-2-1.7-2.9C325.8,112.8,325.2,112.6,325.2,114
		 M334.5,216.9c0,29.4,0,41.5,0.1,26.8c0.1-14.7,0.1-38.8,0-53.5C334.6,175.4,334.5,187.5,334.5,216.9 M33.2,200.6L5,200.8l29.2,0.1
		c18.9,0.1,29.1-0.1,28.9-0.3c-0.1-0.2-0.5-0.3-0.9-0.3C61.8,200.3,48.8,200.5,33.2,200.6 M314.4,254.7c0,0.4,4.7,3.4,5,3.2
		c0.1-0.1-0.5-0.5-1.2-0.9c-0.8-0.4-1.4-0.9-1.4-1.1c0-0.2-0.3-0.3-0.6-0.3c-0.3,0-0.7-0.3-0.8-0.6
		C315.2,254.3,314.4,254.1,314.4,254.7 M232.2,259.1c0,0.2,0.9,0.9,1.9,1.5l1.8,1l-1.2-1c-0.7-0.6-1.4-1-1.7-1
		c-0.3,0-0.6-0.2-0.7-0.4C232.2,258.9,232.1,258.9,232.2,259.1 M329,266c0.1,0.4,0.6,0.9,1.1,1.1c0.7,0.4,0.8,0.4,0.3-0.1
		c-0.3-0.3-0.8-0.8-1.1-1.1C328.8,265.4,328.8,265.4,329,266 M246.6,270.9c0.4,0.4,0.8,0.8,0.7,1c-0.1,0.2,0.2,0.4,0.5,0.4
		c0.8,0,0.1-1-1.2-1.6C245.8,270.2,245.8,270.2,246.6,270.9 M253.3,276.8c0.4,0.3,1,0.6,1.2,0.6c0.2,0,0.1-0.3-0.4-0.6
		c-0.4-0.3-1-0.6-1.2-0.6C252.7,276.2,252.9,276.5,253.3,276.8 M265.1,286.4c0.5,0.5,1.1,1,1.3,1c0.2,0-0.1-0.4-0.7-1
		C264.3,285.1,263.9,285.1,265.1,286.4 M269.5,289.5c0,0.1,0.4,0.7,1,1.3c0.5,0.6,1,0.9,1,0.7C271.4,291.1,269.5,289.1,269.5,289.5
		 M286.2,303.9c0,0.3,0.2,0.6,0.5,0.6c0.3,0,1,0.5,1.6,1.1l1.2,1.1l-0.7-1.1c-0.4-0.6-0.8-1.1-1-1.1c-0.2,0-0.6-0.3-0.9-0.6
		C286.2,303.3,286.2,303.3,286.2,303.9 M311.2,324.2c0,0.4,3.3,3.3,3.7,3.3c0.2,0,0-0.4-0.6-0.8c-0.5-0.4-1.5-1.3-2.1-1.8
		C311.7,324.4,311.2,324.1,311.2,324.2 M320,331.9c1.1,0.9,1.6,1,1.6,0.5c0-0.2-0.3-0.5-0.7-0.6c-0.4-0.1-1-0.3-1.3-0.5
		C319.3,331.2,319.5,331.5,320,331.9 M327.8,338.2c-0.1,0.2,0.3,0.6,1,1c1.4,0.8,1.5,0.7,0.2-0.4
		C328.4,338.3,327.9,338.1,327.8,338.2 M339.3,347.8c0.4,0.5,1.2,1.1,1.6,1.3l0.8,0.4l-0.8-0.7C339.3,347.3,338.4,346.7,339.3,347.8
		 M350.2,357c0,0.2,0.3,0.4,0.6,0.4c0.3,0,0.7,0.2,0.8,0.5c0.2,0.4,0.2,0.4,0.2,0c0-0.3-0.3-0.7-0.8-0.9
		C350.5,356.7,350.2,356.7,350.2,357 M358.2,363.2c0,0.3,2.4,2.5,2.7,2.5c0.3,0,0-0.4-1.3-1.5C358.8,363.5,358.2,363.1,358.2,363.2
		 M384.3,385.1c0.1,0.3,0.7,0.9,1.3,1.2c1.1,0.7,1.1,0.7-0.1-0.6C384.2,384.3,384,384.2,384.3,385.1 M387.1,387.4
		c0.1,0.3,0.4,0.6,0.6,0.6c0.5,0,0.2-0.9-0.4-1.1C387,386.9,387,387,387.1,387.4 M0,0"/>
	<path id="path4" class="st1" d="M53.3,0.7c0,0.4-0.7,1.5-1.6,2.4c-0.9,0.9-1.6,1.9-1.6,2.1c0,0.2-0.2,0.4-0.4,0.4s-0.5,0.4-0.6,0.8
		c-0.1,0.4-0.9,1.5-1.8,2.4c-0.8,0.9-1.7,2-1.8,2.4c-0.1,0.4-0.4,0.7-0.6,0.6c-0.2-0.1-0.5,0.2-0.6,0.7c-0.2,0.5-1,1.6-1.8,2.5
		c-0.8,0.9-1.6,1.9-1.8,2.3c-0.1,0.4-0.4,0.7-0.6,0.7c-0.2,0-0.4,0.2-0.4,0.4c0,0.2-0.5,0.9-1.1,1.5c-1.4,1.5-2.5,2.8-2.5,3.1
		c0,0.2-0.2,0.5-1.4,1.9c-0.2,0.3-1.3,1.6-2.4,3.1c-1.1,1.4-2.5,3.1-3.1,3.8c-0.6,0.7-1.1,1.4-1.1,1.7c0,0.3-0.1,0.5-0.3,0.5
		c-0.2,0-1.5,1.6-2.9,3.5c-1.4,1.9-2.8,3.7-3,3.9c-0.6,0.6-3,3.7-3,3.9c0,0.1-0.5,0.8-1.2,1.4c-0.7,0.7-1.2,1.3-1.2,1.5
		c0,0.2-0.8,1.2-1.8,2.3c-1,1.1-2.1,2.5-2.4,3.1c-0.3,0.6-0.8,1.1-1,1.1c-0.2,0-0.4,0.2-0.4,0.4c0,0.3-0.6,1.2-2.7,3.5
		C8,59,7.6,59.6,7.6,59.8c0,0.2-0.5,0.8-1.1,1.4C3.7,63.7,4,56.9,4,132c0,67.3,0,67.8,0.8,68.2c0.9,0.5,57.6,0.4,58.4-0.1
		c0.4-0.3,0.5-12.1,0.5-57c0-49.9,0.1-56.7,0.6-57.1c0.3-0.3,0.6-0.7,0.6-1c0-0.3,0.2-0.5,0.4-0.5c0.2,0,0.4-0.2,0.4-0.4
		c0-0.2,0.4-0.8,0.9-1.3c0.5-0.5,1.5-2.4,2.2-4.1c0.7-1.7,1.6-3.4,1.9-3.8c0.5-0.5,0.6-6.8,0.7-37.7l0.1-32.7c0-2.4-2-4.4-4.4-4.4
		h-4.7C53.9,0,53.3,0,53.3,0.7 M338.7,0.3c0,0.2-1.3,1.7-2.9,3.4c-1.6,1.7-3.3,3.6-3.9,4.3c-0.5,0.7-1.4,1.7-2,2.3
		c-1.1,1.2-2.1,2.8-3,4.6c-0.3,0.7-0.8,1.4-1.2,1.5c-0.7,0.3-1,96.6-0.3,96.6c0.2,0,1,1.2,1.9,2.6c0.9,1.5,2.3,3.5,3.2,4.4
		c0.9,1,1.7,2,1.7,2.2s0.2,0.2,0.4,0.1s0.4,0,0.4,0.4c0,0.3,0.3,0.8,0.6,1c1,0.5,1.4,146.7,0.5,146.5c-0.7-0.2-3.2-2.1-5.3-4.2
		c-0.7-0.7-1.4-1.3-1.6-1.3c-0.2,0-0.9-0.6-2.2-1.7c-0.4-0.4-0.8-0.7-0.9-0.7c-0.1,0-1.1-0.9-2.2-1.9c-1.1-1.1-3.3-2.7-4.8-3.6
		c-1.5-0.9-2.8-1.9-2.8-2.1c0-0.6-85.1-0.5-85.4,0.1c-0.2,0.3,0,0.7,0.4,0.9c0.4,0.3,0.7,0.6,0.7,0.7c0,0.4,2.7,3,3.1,3
		c0.2,0,1,0.6,1.8,1.3c3.4,3,4.2,3.7,5.5,4.7c0.7,0.5,1.8,1.5,2.4,2.1c0.6,0.6,1.3,1.1,1.5,1.1c0.2,0,0.5,0.2,0.5,0.4
		c0.2,0.5,3.8,3.2,4.3,3.2c0.2,0,0.4,0.3,0.4,0.6c0,0.3,0.2,0.6,0.4,0.6c0.2,0,1,0.6,1.7,1.3c1.7,1.7,3.3,3,5.3,4.5
		c0.9,0.6,2.1,1.7,2.8,2.3c0.7,0.6,1.3,1.1,1.5,1.1c0.2,0,0.9,0.6,1.6,1.3c1.7,1.6,3.1,2.8,5.4,4.6c1,0.8,2.2,1.8,2.7,2.3
		c0.5,0.5,1,0.9,1.1,0.9s0.6,0.3,1,0.7c1.4,1.3,2,1.7,2.4,1.7c0.2,0,0.4,0.3,0.4,0.6c0,0.3,0.2,0.6,0.4,0.6s0.8,0.4,1.3,1
		c0.5,0.5,1,1,1.2,1c0.1,0,0.8,0.5,1.5,1.2c0.7,0.7,1.5,1.2,1.6,1.2c0.2,0,1.1,0.8,2,1.8c0.9,1,1.8,1.8,2,1.8c0.4,0,1.2,0.7,2.8,2.3
		c0.7,0.7,1.4,1.3,1.6,1.3s0.7,0.4,1.1,0.9c0.5,0.5,1.5,1.3,2.2,1.9c0.8,0.5,1.8,1.4,2.3,1.9c0.5,0.5,1,0.9,1.1,0.9
		c0.1,0,0.9,0.7,1.8,1.6c0.9,0.9,1.8,1.6,2,1.6c0.2,0,1,0.6,1.8,1.4c0.8,0.8,2,1.8,2.6,2.3c1.8,1.4,4,3.2,4.8,4
		c0.4,0.4,0.9,0.7,1.1,0.7c0.2,0,0.4,0.1,0.5,0.3s1,1,2.1,1.9c1.1,0.9,2.6,2.2,3.4,3c1.6,1.6,2.6,2.3,3.6,2.6
		c0.4,0.1,0.7,0.5,0.7,0.8c0,0.3,0.2,0.5,0.4,0.5c0.2,0,1.1,0.7,2,1.6c0.9,0.9,1.7,1.6,1.9,1.6c0.2,0,0.6,0.3,0.9,0.7
		c0.3,0.4,1.2,1.1,2,1.7c0.7,0.5,1.6,1.3,1.9,1.6c0.3,0.3,1.8,1.5,3.2,2.6c1.4,1.1,3,2.4,3.6,3c0.6,0.5,1.7,1.5,2.6,2.2
		c0.8,0.7,1.8,1.4,2,1.7c0.3,0.3,0.6,0.5,0.7,0.5c0.1,0,1,0.8,2,1.7c1,1,1.9,1.8,2.2,1.9c0.5,0.2,3.2,2.4,5.3,4.2
		c0.8,0.7,1.6,1.3,1.7,1.3c0.2,0,0.8,0.5,1.5,1.2c0.6,0.7,1.2,1.2,1.3,1.2c0.1,0,1.1,0.9,2.2,1.9c1.1,1,2.1,1.8,2.2,1.8
		c0.1-0.1,0.6,0.3,1.1,0.9c0.5,0.6,1.1,1,1.2,1c0.1,0,0.7,0.4,1.1,0.9c0.5,0.5,1.8,1.6,2.8,2.5c1.1,0.9,2.3,1.8,2.6,2.2
		c0.3,0.3,1.3,1.1,2.2,1.8c1.5,1.2,2.2,1.8,3.9,3.2c3.5,3,5.5,4.6,5.7,4.6c0.1,0,1.2,1,2.5,2.2c1.3,1.2,2.5,2.2,2.7,2.2
		c0.2,0,0.9,0.5,1.4,1.2c0.5,0.6,1.4,1.2,1.9,1.2l0.9,0V251.1l1.4-133.6c0-2.4,0-1,0-4.4h-1.1h1.1c-0.1-6.9,0-3.4,0-5.2V77.5
		L392.4,41l0,0L392,28.3l0.3-16.5V4.5c0-2.4,0,0-0.2-4L359.2,0C347.9,0,338.7,0.2,338.7,0.3"/>
</g>
</svg>
