<?xml version="1.0" encoding="iso-8859-1"?>
<!-- Generator: Adobe Illustrator 19.0.0, SVG Export Plug-In . SVG Version: 6.00 Build 0)  -->
<svg version="1.1" id="Layer_1" xmlns="http://www.w3.org/2000/svg" xmlns:xlink="http://www.w3.org/1999/xlink" x="0px" y="0px"
	 viewBox="0 0 512 512" style="enable-background:new 0 0 512 512;" xml:space="preserve">
<g>
	<path style="fill:#38454F;" d="M185.379,384v17.655h141.241V384H476.69V101.517c0-9.754-7.901-17.655-17.655-17.655H52.966
		c-9.754,0-17.655,7.901-17.655,17.655V384H185.379z"/>
	<path style="fill:#B0B6BB;" d="M326.621,384v17.655H185.379V384H0v26.483c0,9.754,7.901,17.655,17.655,17.655h476.69
		c9.754,0,17.655-7.901,17.655-17.655V384H326.621z"/>
	<polygon style="fill:#546A79;" points="52.966,366.345 459.034,366.345 459.034,101.517 52.966,101.517 	"/>
	<polygon style="fill:#25AE88;" points="97.103,348.69 150.069,348.69 150.069,207.448 97.103,207.448 	"/>
	<polygon style="fill:#DD691D;" points="150.069,348.69 203.034,348.69 203.034,154.483 150.069,154.483 	"/>
	<polygon style="fill:#D38479;" points="203.034,348.69 256,348.69 256,233.931 203.034,233.931 	"/>
	<polygon style="fill:#ECBA16;" points="256,348.69 308.966,348.69 308.966,180.966 256,180.966 	"/>
	<polygon style="fill:#DD691D;" points="308.966,348.69 361.931,348.69 361.931,119.172 308.966,119.172 	"/>
	<polygon style="fill:#25AE88;" points="361.931,348.69 414.897,348.69 414.897,154.483 361.931,154.483 	"/>
	<polygon style="fill:#38454F;" points="61.793,357.517 450.207,357.517 450.207,339.862 61.793,339.862 	"/>
</g>
<g>
</g>
<g>
</g>
<g>
</g>
<g>
</g>
<g>
</g>
<g>
</g>
<g>
</g>
<g>
</g>
<g>
</g>
<g>
</g>
<g>
</g>
<g>
</g>
<g>
</g>
<g>
</g>
<g>
</g>
</svg>
