<?xml version="1.0" encoding="iso-8859-1"?>
<!-- Generator: Adobe Illustrator 19.0.0, SVG Export Plug-In . SVG Version: 6.00 Build 0)  -->
<svg version="1.1" id="Capa_1" xmlns="http://www.w3.org/2000/svg" xmlns:xlink="http://www.w3.org/1999/xlink" x="0px" y="0px"
	 viewBox="0 0 488 488" style="enable-background:new 0 0 488 488;" xml:space="preserve">
<path style="fill:#F9E0A6;" d="M388.004,192.08l-32-40.08h-200l-7.36,8c-14.456,15.872-25.552,35.064-32.016,56.608l-3.616,12.048
	c-8.536,28.456-24,54.344-45,75.344l3.744,3.744c23.208,23.216,36.248,54.704,36.248,87.528l0,0
	c0,24.704,20.024,44.728,44.728,44.728c7.4,0,14.688-1.84,21.2-5.344l30.072-16.192V480h136v-33.176
	c0-30.432,9.64-60.08,27.544-84.696l8.384-11.528c18.24-25.088,28.072-55.312,28.072-86.336v-5.48
	C404.004,234.768,398.236,212.088,388.004,192.08z"/>
<rect x="204.004" y="456" style="fill:#EABD8C;" width="136" height="24"/>
<path style="fill:#ECECEC;" d="M402.34,90.816c0.976-3.464,1.664-7.04,1.664-10.816c0-22.088-17.912-40-40-40
	c-1.784,0-3.488,0.296-5.208,0.528C349.908,21.336,330.54,8,308.004,8c-11.904,0-22.928,3.744-32,10.08
	c-9.072-6.336-20.096-10.08-32-10.08c-23.184,0-43.072,14.088-51.584,34.168C188.492,40.872,184.364,40,180.004,40
	c-22.088,0-40,17.912-40,40c0,2.088,0.304,4.096,0.616,6.104c-16.448,9.2-26.936,27.768-24.176,48.504
	C119.66,158.688,141.46,176,165.764,176h54.24c17.672,0,32,14.328,32,32v16h32v-16c0-17.672,14.328-32,32-32h53.904
	c26.576,0,49.688-20.688,50.088-47.264C420.228,113.432,413.292,99.76,402.34,90.816z"/>
<path style="fill:#B6C1CE;" d="M402.34,90.816c0.976-3.464,1.664-7.04,1.664-10.816c0-22.088-17.912-40-40-40
	c-1.416,0-3.256,0.136-4.816,0.304l-10.848,3.168C362.284,49.72,372.004,63.728,372.004,80c0,3.776-0.688,7.352-1.664,10.816
	c10.952,8.944,17.888,22.624,17.664,37.92c-0.4,26.576-23.52,47.264-50.096,47.264h32c26.576,0,49.688-20.688,50.088-47.264
	C420.228,113.44,413.292,99.76,402.34,90.816z"/>
<path style="fill:#FCD770;" d="M348.004,320v-32l-19.56-4.888c-0.84-2.432-1.824-4.784-2.936-7.064l10.376-17.296l-22.624-22.624
	l-17.296,10.376c-2.288-1.112-4.64-2.096-7.064-2.936L284.004,224h-32l-4.888,19.56c-2.432,0.84-4.784,1.824-7.064,2.936
	l-17.296-10.376l-22.624,22.624l10.376,17.296c-1.112,2.288-2.096,4.64-2.936,7.064L188.004,288v32l19.56,4.888
	c0.84,2.432,1.824,4.784,2.936,7.064l-10.376,17.296l22.624,22.624l17.296-10.376c2.288,1.112,4.64,2.096,7.064,2.936L252.004,384
	h32l4.888-19.56c2.432-0.84,4.784-1.824,7.064-2.936l17.296,10.376l22.624-22.624L325.5,331.96c1.112-2.288,2.104-4.64,2.936-7.064
	L348.004,320z M268.004,336c-17.672,0-32-14.328-32-32s14.328-32,32-32s32,14.328,32,32S285.676,336,268.004,336z"/>
<path style="fill:#FEA82F;" d="M268.004,248c-30.928,0-56,25.072-56,56s25.072,56,56,56s56-25.072,56-56S298.932,248,268.004,248z
	 M268.004,336c-17.672,0-32-14.328-32-32s14.328-32,32-32s32,14.328,32,32S285.676,336,268.004,336z"/>
<path style="fill:#FFC729;" d="M268.004,328c-16.304,0-29.608-12.24-31.6-28c-0.16,1.328-0.4,2.632-0.4,4c0,17.672,14.328,32,32,32
	s32-14.328,32-32c0-1.368-0.24-2.672-0.4-4C297.612,315.76,284.308,328,268.004,328z"/>
<g>
	<circle style="fill:#FB5968;" cx="244.004" cy="56" r="16"/>
	<circle style="fill:#FB5968;" cx="372.004" cy="128" r="16"/>
	<circle style="fill:#FB5968;" cx="268.004" cy="144" r="16"/>
	<circle style="fill:#FB5968;" cx="164.004" cy="128" r="16"/>
</g>
<path d="M427.98,129.72c0.464-15.288-5.152-29.752-15.784-40.712c-0.296-0.304-0.624-0.568-0.928-0.872
	c0.456-2.68,0.736-5.4,0.736-8.136c0-26.472-21.528-48-48-48c-0.24,0-0.472,0.04-0.72,0.048C351.932,12.456,330.9,0,308.004,0
	C296.66,0,285.796,3.104,276.1,8.72C266.652,3.208,255.708,0,244.004,0c-23.944,0-44.832,13.24-55.808,32.768
	C185.5,32.304,182.772,32,180.004,32c-26.472,0-48,21.528-48,48c0,0.656,0.152,1.312,0.176,1.968
	c-11.496,7.976-20.016,20.112-22.928,34.072c-3.52,16.888,0.584,34.12,11.272,47.264c2.592,3.184,5.496,6.024,8.632,8.528
	c-8.848,13.04-15.656,27.32-20.208,42.48l-3.616,12.048c-8.12,27.088-22.984,51.976-42.992,71.984
	c-3.128,3.128-3.128,8.184,0,11.312l3.744,3.744c21.872,21.864,33.92,50.944,33.92,81.872c0,29.072,23.656,52.728,52.728,52.728
	c8.696,0,17.344-2.176,25-6.296l18.272-9.84V488h152v-67.184c0-11.904,3.704-23.296,10.712-32.936l23.68-32.568
	c19.368-26.632,29.608-58.112,29.608-91.048v-5.48c0-27.808-7.456-54.776-21.48-78.536
	C411.756,172.352,427.284,152.704,427.98,129.72z M124.908,119.304c3.144-15.048,15.352-27.256,30.4-30.4l-3.264-15.656
	c-1.184,0.248-2.304,0.672-3.456,1C151.308,59.344,164.324,48,180.004,48c0.696,0,1.376,0.112,2.064,0.152
	c-1.296,5.08-2.064,10.368-2.064,15.848h16c0-26.472,21.528-48,48-48s48,21.528,48,48h16c0-17.224-6.872-32.856-17.984-44.368
	C295.7,17.328,301.74,16,308.004,16c15.288,0,29.448,7.432,38.408,19.408c-3.984,1.576-7.792,3.616-11.216,6.192l9.608,12.8
	c3.824-2.872,8.112-4.8,12.768-5.76l0,0c0.736-0.152,1.48-0.264,2.232-0.368l0,0c1.384-0.176,2.776-0.272,4.2-0.272
	c16.728,0,30.336,12.936,31.728,29.304C388.404,73.872,380.364,72,372.004,72v16c10.912,0,21.112,4.312,28.712,12.152
	c7.6,7.832,11.6,18.16,11.264,29.088C411.34,150.608,392.5,168,369.988,168h-53.984c-22.056,0-40,17.944-40,40v8h-16v-8
	c0-22.056-17.944-40-40-40h-56c-12.096,0-23.416-5.392-31.056-14.792S122.38,131.464,124.908,119.304z M318.316,279.56
	c0.976,1.992,1.832,4.048,2.576,6.168l1.416,4.088l17.696,4.424v19.512l-17.696,4.424l-1.416,4.088
	c-0.744,2.128-1.6,4.176-2.576,6.168l-1.904,3.904l9.408,15.672l-13.8,13.8l-15.672-9.408l-3.904,1.904
	c-1.992,0.976-4.048,1.832-6.168,2.576l-4.088,1.416L277.764,376h-19.52l-4.424-17.696l-4.088-1.416
	c-2.128-0.744-4.176-1.6-6.168-2.576l-3.904-1.904l-15.672,9.408l-13.8-13.8l9.408-15.672l-1.904-3.904
	c-0.976-1.992-1.832-4.048-2.576-6.168l-1.416-4.088l-17.696-4.424v-19.52l17.696-4.424l1.416-4.088
	c0.744-2.128,1.6-4.176,2.576-6.168l1.904-3.904l-9.408-15.672l13.8-13.8l15.672,9.408l3.904-1.904
	c1.992-0.976,4.048-1.832,6.168-2.576l4.088-1.416L258.244,232h19.512l4.424,17.696l4.088,1.416c2.128,0.744,4.176,1.6,6.168,2.576
	l3.904,1.904l15.672-9.408l13.8,13.8l-9.408,15.672L318.316,279.56z M396.004,258.792v5.48c0,29.528-9.176,57.76-26.544,81.632
	l-23.68,32.568c-9.008,12.384-13.776,27.032-13.776,42.344V472h-120v-48.752l15.224-8.2l-7.592-14.096l-49.496,26.656
	c-5.328,2.88-11.352,4.392-17.408,4.392c-20.248,0-36.728-16.48-36.728-36.728c0-34.352-13.056-66.704-36.832-91.376
	c19.104-20.816,33.376-45.872,41.496-72.944l3.616-12.048c4.112-13.712,10.272-26.624,18.04-38.024l0.768-1
	c6.568,2.64,13.624,4.12,20.912,4.12h56c13.232,0,24,10.768,24,24v15.024l-3.592,14.36l-18.904-11.336l-31.456,31.456l11.336,18.904
	l-21.384,5.352v44.488l21.384,5.352l-11.336,18.904l31.456,31.456l18.904-11.336L245.764,392h44.488l5.352-21.384l18.904,11.336
	l31.456-31.456l-11.336-18.904l21.376-5.352v-44.48l-21.384-5.352l11.336-18.904L314.5,226.048l-18.904,11.336l-3.592-14.36V208
	c0-13.232,10.768-24,24-24h53.984c1.344,0,2.664-0.104,3.992-0.192C388.372,206.168,396.004,232.056,396.004,258.792z"/>
<path d="M268.004,264c-22.056,0-40,17.944-40,40s17.944,40,40,40s40-17.944,40-40S290.06,264,268.004,264z M268.004,328
	c-13.232,0-24-10.768-24-24s10.768-24,24-24s24,10.768,24,24S281.236,328,268.004,328z"/>
<path d="M164.004,152c13.232,0,24-10.768,24-24c0-3.248-0.664-6.352-1.84-9.184L232.628,77c2.896,1.576,6.128,2.56,9.584,2.816
	l12.128,44.496c-6.232,4.344-10.336,11.536-10.336,19.688c0,13.232,10.768,24,24,24c11.704,0,21.44-8.432,23.544-19.528
	l59.424-9.144c4.064,7.504,11.912,12.672,21.032,12.672c13.232,0,24-10.768,24-24s-10.768-24-24-24
	c-11.704,0-21.44,8.432-23.544,19.528l-59.424,9.144c-3.792-7-10.888-11.856-19.232-12.488l-12.128-44.496
	C263.9,71.344,268.004,64.152,268.004,56c0-13.232-10.768-24-24-24s-24,10.768-24,24c0,3.248,0.664,6.352,1.84,9.176l-46.464,41.816
	c-3.4-1.848-7.24-2.992-11.376-2.992c-13.232,0-24,10.768-24,24S150.772,152,164.004,152z M372.004,120c4.416,0,8,3.584,8,8
	s-3.584,8-8,8s-8-3.584-8-8S367.588,120,372.004,120z M276.004,144c0,4.416-3.584,8-8,8s-8-3.584-8-8s3.584-8,8-8
	S276.004,139.584,276.004,144z M244.004,48c4.416,0,8,3.584,8,8s-3.584,8-8,8s-8-3.584-8-8S239.588,48,244.004,48z M164.004,120
	c4.416,0,8,3.584,8,8s-3.584,8-8,8s-8-3.584-8-8S159.588,120,164.004,120z"/>
<rect x="308.004" y="88" width="16" height="16"/>
<rect x="204.004" y="128" width="16" height="16"/>
<g>
</g>
<g>
</g>
<g>
</g>
<g>
</g>
<g>
</g>
<g>
</g>
<g>
</g>
<g>
</g>
<g>
</g>
<g>
</g>
<g>
</g>
<g>
</g>
<g>
</g>
<g>
</g>
<g>
</g>
</svg>
