<?xml version="1.0" encoding="utf-8"?>
<!-- Generator: Adobe Illustrator 16.0.2, SVG Export Plug-In . SVG Version: 6.00 Build 0)  -->
<!DOCTYPE svg PUBLIC "-//W3C//DTD SVG 1.1//EN" "http://www.w3.org/Graphics/SVG/1.1/DTD/svg11.dtd">
<svg version="1.1" id="Layer_1" xmlns="http://www.w3.org/2000/svg" xmlns:xlink="http://www.w3.org/1999/xlink" x="0px" y="0px"
	 width="841.89px" height="359px" viewBox="0 0 841.89 359" enable-background="new 0 0 841.89 359" xml:space="preserve">
<g>
	<g>
		<polygon fill="#5C5D60" points="100.428,121.83 164.907,180.523 164.907,267.652 56.283,172.421 56.283,217.599 198.931,338.232 
			198.931,162.315 123.882,95.865 		"/>
		<polygon fill="#5C5D60" points="5.518,217.659 39.402,217.659 39.402,164.915 54.402,149.258 149.533,236.998 149.533,190.788 
			52.83,101.572 5.518,150.935 		"/>
		<polygon fill="#FFFFFF" points="5.518,59.397 5.518,127.202 39.277,93.299 39.277,59.397 		"/>
		<polygon fill="#5C5D60" points="64.461,89.008 89.516,111.72 140.775,55.165 140.775,7.074 		"/>
	</g>
	<g>
		<path fill="#5C5D60" d="M326.982,285.778H316.74c0-4.934-0.988-7.994-2.963-9.178c-1.976-1.184-7.06-1.777-15.255-1.777
			c-7.608,0-12.435,0.633-14.486,1.889c-2.047,1.257-3.071,4.28-3.071,9.066c0,7.253,3.438,11.052,10.314,11.396l8.268,0.446
			l10.464,0.519c12.68,0.638,19.021,7.354,19.021,20.131c0,7.941-2.098,13.395-6.291,16.357c-4.196,2.959-11.879,4.438-23.047,4.438
			c-11.463,0-19.352-1.404-23.668-4.219s-6.475-7.965-6.475-15.467l0.073-3.85h10.607l0.074,3.332c0,4.641,1.17,7.732,3.512,9.287
			c2.339,1.555,6.951,2.332,13.83,2.332c8.436,0,13.983-0.814,16.643-2.443c2.658-1.627,3.987-5.031,3.987-10.211
			c0-7.453-3.341-11.176-10.023-11.176c-15.561,0-25.79-1.334-30.691-3.998c-4.903-2.664-7.353-8.189-7.353-16.58
			c0-7.943,1.938-13.233,5.816-15.877c3.876-2.636,11.596-3.955,23.156-3.955c18.534,0,27.801,5.649,27.801,16.944V285.778z"/>
		<path fill="#5C5D60" d="M372.637,266.241c12.923,0,21.313,2.266,25.168,6.804c3.851,4.541,5.78,14.408,5.78,29.608
			c0,15.199-1.929,25.066-5.78,29.604c-3.855,4.541-12.246,6.809-25.168,6.809c-12.876,0-21.242-2.268-25.094-6.809
			c-3.854-4.537-5.779-14.404-5.779-29.604c0-15.2,1.925-25.067,5.779-29.608C351.395,268.506,359.76,266.241,372.637,266.241z
			 M372.637,274.823c-9.073,0-14.694,1.491-16.863,4.479c-2.17,2.986-3.256,10.77-3.256,23.351c0,12.582,1.086,20.365,3.256,23.352
			c2.169,2.986,7.791,4.477,16.863,4.477c9.119,0,14.767-1.49,16.936-4.477c2.172-2.986,3.257-10.77,3.257-23.352
			c0-12.582-1.085-20.365-3.257-23.351C387.403,276.314,381.756,274.823,372.637,274.823z"/>
		<path fill="#5C5D60" d="M429.776,237.004v101.023h-10.242V237.004H429.776z"/>
		<path fill="#5C5D60" d="M504.839,267.277v70.75h-10.243l0.735-9.25l-0.222-0.223c-3.563,7.008-11.168,10.51-22.829,10.51
			c-16.337,0-24.505-8.236-24.505-24.719v-47.069h10.242v47.069c0,6.414,1.049,10.705,3.146,12.877
			c2.095,2.172,6.217,3.258,12.362,3.258c8.05,0,13.574-1.617,16.574-4.848c2.997-3.234,4.496-9.162,4.496-17.801v-40.555H504.839z"
			/>
		<path fill="#5C5D60" d="M560.88,267.277v8.581h-26.923v43.3c0,7.547,3.315,11.322,9.95,11.322c6.581,0,9.877-3.381,9.877-10.139
			l0.071-3.48l0.147-3.922h9.514l0.076,5.256c0,13.914-6.541,20.869-19.612,20.869c-13.514,0-20.267-5.797-20.267-17.393v-2.514
			v-43.3h-9.654v-8.581h9.654v-17.024h10.243v17.024H560.88z"/>
		<path fill="#5C5D60" d="M582.832,237.004v11.617h-10.244v-11.617H582.832z M582.832,267.277v70.75h-10.244v-70.75H582.832z"/>
		<path fill="#5C5D60" d="M629.653,266.241c12.925,0,21.317,2.266,25.167,6.804c3.854,4.541,5.782,14.408,5.782,29.608
			c0,15.199-1.929,25.066-5.782,29.604c-3.85,4.541-12.242,6.809-25.167,6.809c-12.876,0-21.241-2.268-25.092-6.809
			c-3.857-4.537-5.782-14.404-5.782-29.604c0-15.2,1.925-25.067,5.782-29.608C608.412,268.506,616.777,266.241,629.653,266.241z
			 M629.653,274.823c-9.073,0-14.695,1.491-16.862,4.479c-2.171,2.986-3.255,10.77-3.255,23.351c0,12.582,1.084,20.365,3.255,23.352
			c2.167,2.986,7.789,4.477,16.862,4.477c9.117,0,14.77-1.49,16.938-4.477c2.171-2.986,3.255-10.77,3.255-23.352
			c0-12.582-1.084-20.365-3.255-23.351C644.423,276.314,638.771,274.823,629.653,274.823z"/>
		<path fill="#5C5D60" d="M676.55,267.277h9.88l-0.295,9.617l0.295,0.22c3.12-7.25,10.876-10.873,23.262-10.873
			c10.001,0,16.768,1.774,20.304,5.326c3.534,3.554,5.304,10.36,5.304,20.429v46.032h-10.241v-45.142v-2.671
			c0-6.067-1.148-10.146-3.44-12.246c-2.292-2.095-6.708-3.146-13.24-3.146c-14.391,0-21.585,6.885-21.585,20.652v42.552H676.55
			V267.277z"/>
		<path fill="#5C5D60" d="M808.022,285.778H797.78c0-4.934-0.989-7.994-2.965-9.178c-1.978-1.184-7.06-1.777-15.253-1.777
			c-7.608,0-12.436,0.633-14.487,1.889c-2.046,1.257-3.07,4.28-3.07,9.066c0,7.253,3.437,11.052,10.313,11.396l8.269,0.446
			l10.465,0.519c12.679,0.638,19.02,7.354,19.02,20.131c0,7.941-2.095,13.395-6.29,16.357c-4.195,2.959-11.878,4.438-23.046,4.438
			c-11.463,0-19.352-1.404-23.671-4.219c-4.313-2.814-6.474-7.965-6.474-15.467l0.073-3.85h10.609l0.074,3.332
			c0,4.641,1.169,7.732,3.512,9.287c2.338,1.555,6.952,2.332,13.83,2.332c8.435,0,13.98-0.814,16.64-2.443
			c2.658-1.627,3.989-5.031,3.989-10.211c0-7.453-3.339-11.176-10.023-11.176c-15.559,0-25.79-1.334-30.692-3.998
			c-4.904-2.664-7.35-8.189-7.35-16.58c0-7.943,1.936-13.233,5.812-15.877c3.879-2.636,11.598-3.955,23.16-3.955
			c18.532,0,27.799,5.649,27.799,16.944V285.778z"/>
	</g>
	<g>
		<path fill="#5C5D60" d="M290.778,7.898V134.83h8.645l45.654-55.125h23.777l-55.247,63.021l65.24,74.219h-25.528l-54.84-66.467
			h-7.7v66.467h-18.914V7.898H290.778z"/>
		<path fill="#FFFFFF" d="M390.869,79.704h18.235l-0.539,18.665l0.539,0.428c5.763-14.067,20.082-21.103,42.956-21.103
			c18.461,0,30.956,3.447,37.483,10.339c6.53,6.889,9.796,20.096,9.796,39.618v89.293h-18.912v-87.568v-5.166
			c0-11.776-2.116-19.692-6.35-23.76c-4.231-4.066-12.381-6.102-24.449-6.102c-26.566,0-39.847,13.35-39.847,40.053v82.542h-18.913
			V79.704z"/>
		<path fill="#FFFFFF" d="M586.872,77.694c23.862,0,39.353,4.405,46.467,13.208c7.113,8.807,10.669,27.948,10.669,57.422
			c0,29.479-3.556,48.62-10.669,57.423c-7.114,8.808-22.604,13.208-46.467,13.208c-23.774,0-39.222-4.4-46.335-13.208
			c-7.111-8.803-10.669-27.943-10.669-57.423c0-29.474,3.558-48.615,10.669-57.422C547.65,82.099,563.098,77.694,586.872,77.694z
			 M586.872,94.349c-16.752,0-27.132,2.894-31.135,8.685c-4.01,5.79-6.011,20.887-6.011,45.291c0,24.406,2.001,39.503,6.011,45.292
			c4.003,5.794,14.383,8.687,31.135,8.687c16.838,0,27.26-2.893,31.269-8.687c4.008-5.789,6.011-20.886,6.011-45.292
			c0-24.404-2.003-39.501-6.011-45.291C614.132,97.242,603.71,94.349,586.872,94.349z"/>
		<path fill="#FFFFFF" d="M841.492,79.704l-36.199,137.24h-28.097l-17.291-76.229l-5.268-23.255l-2.431-11.626l-2.567-11.628h-0.404
			l-2.568,11.628l-2.564,11.626l-5.27,23.255l-17.424,76.229h-28.639l-34.985-137.24h19.857l18.236,75.942l5.672,23.828l2.7,11.919
			l2.703,11.915h0.542l2.563-11.915l2.704-11.919l5.405-23.685l17.691-76.085h27.56l17.557,76.228l5.404,23.686l2.567,11.775
			l2.565,11.915h0.407l2.837-11.915l2.699-11.919l5.672-23.828l18.103-75.942H841.492z"/>
	</g>
</g>
</svg>
