<?xml version="1.0" encoding="iso-8859-1"?>
<!-- Generator: Adobe Illustrator 16.0.0, SVG Export Plug-In . SVG Version: 6.00 Build 0)  -->
<!DOCTYPE svg PUBLIC "-//W3C//DTD SVG 1.1//EN" "http://www.w3.org/Graphics/SVG/1.1/DTD/svg11.dtd">
<svg version="1.1" id="Capa_1" xmlns="http://www.w3.org/2000/svg" xmlns:xlink="http://www.w3.org/1999/xlink" x="0px" y="0px"
	 width="197.033px" height="197.033px" viewBox="0 0 197.033 197.033" style="enable-background:new 0 0 197.033 197.033;"
	 xml:space="preserve">
<g>
	<g>
		<path d="M40.685,106.651C18.212,106.651,0,99.369,0,90.378v16.273c0,8.994,18.212,16.276,40.685,16.276
			s40.679-7.282,40.679-16.276V90.378C81.363,99.369,63.157,106.651,40.685,106.651z"/>
		<path d="M40.685,131.062C18.212,131.062,0,123.78,0,114.787v16.275c0,8.994,18.212,16.277,40.685,16.277
			s40.679-7.283,40.679-16.277v-16.275C81.363,123.78,63.157,131.062,40.685,131.062z"/>
		<path d="M40.685,49.693C18.212,49.693,0,56.977,0,65.967v16.276c0,8.997,18.212,16.273,40.685,16.273s40.679-7.276,40.679-16.273
			V65.967C81.363,56.977,63.157,49.693,40.685,49.693z M40.685,78.17c-22.353,0-36.62-7.228-36.62-12.209
			s14.261-12.209,36.62-12.209c22.354,0,36.614,7.228,36.614,12.209S63.032,78.17,40.685,78.17z"/>
		<path d="M156.345,131.062c-22.469,0-40.676-7.282-40.676-16.275v16.275c0,8.994,18.207,16.277,40.676,16.277
			c22.475,0,40.688-7.283,40.688-16.277v-16.275C197.045,123.78,178.827,131.062,156.345,131.062z"/>
		<path d="M156.345,74.105c-22.469,0-40.676,7.282-40.676,16.273v16.273c0,8.994,18.207,16.276,40.676,16.276
			c22.475,0,40.688-7.282,40.688-16.276V90.378C197.045,81.388,178.827,74.105,156.345,74.105z M156.345,102.584
			c-22.348,0-36.608-7.23-36.608-12.212c0-4.98,14.261-12.208,36.608-12.208c22.359,0,36.62,7.228,36.62,12.208
			C192.965,95.354,178.71,102.584,156.345,102.584z"/>
		<rect x="82.928" y="103.534" width="31.177" height="6.235"/>
	</g>
</g>
<g>
</g>
<g>
</g>
<g>
</g>
<g>
</g>
<g>
</g>
<g>
</g>
<g>
</g>
<g>
</g>
<g>
</g>
<g>
</g>
<g>
</g>
<g>
</g>
<g>
</g>
<g>
</g>
<g>
</g>
</svg>
